<?xml version="1.0" encoding="iso-8859-1"?>
<!-- Generator: Adobe Illustrator 19.0.0, SVG Export Plug-In . SVG Version: 6.00 Build 0)  -->
<svg version="1.1" id="Capa_1" xmlns="http://www.w3.org/2000/svg" xmlns:xlink="http://www.w3.org/1999/xlink" x="0px" y="0px"
	 viewBox="0 0 512 512" style="enable-background:new 0 0 512 512;" xml:space="preserve">
<rect x="215.999" y="264.86" style="fill:#DA5B2C;" width="80" height="48.809"/>
<path style="fill:#A84926;" d="M215.998,313.664v148.335c0,22.092,17.909,40,40.001,40l0,0c22.092,0,40.001-17.909,40.001-40
	V313.664H215.998z"/>
<path d="M255.999,454.369c-0.65,0-1.311-0.06-1.95-0.19c-0.64-0.13-1.27-0.32-1.87-0.57c-0.61-0.25-1.189-0.56-1.729-0.92
	c-0.551-0.37-1.061-0.78-1.521-1.25c-1.86-1.85-2.93-4.43-2.93-7.07c0-2.63,1.069-5.21,2.93-7.07c0.46-0.46,0.97-0.88,1.521-1.24
	c0.54-0.36,1.119-0.67,1.729-0.92c0.601-0.25,1.23-0.44,1.87-0.57c1.29-0.26,2.61-0.26,3.9,0c0.64,0.13,1.27,0.32,1.88,0.57
	c0.6,0.25,1.18,0.56,1.72,0.92c0.55,0.36,1.06,0.78,1.52,1.24c1.86,1.86,2.931,4.44,2.931,7.07c0,2.64-1.07,5.21-2.931,7.07
	c-0.46,0.47-0.97,0.88-1.52,1.25c-0.54,0.36-1.12,0.67-1.72,0.92c-0.61,0.25-1.24,0.44-1.88,0.57
	C257.308,454.31,256.648,454.369,255.999,454.369z"/>
<g>
	<path style="fill:#ACABB1;" d="M180.027,39.948c-7.288-7.467-14.096-17.241-20.022-29.948c0,0-52.449,37.933-52.444,104.893
		c-0.005,66.96,52.444,104.893,52.444,104.893c5.913-12.68,12.743-22.439,20.055-29.901"/>
	<path style="fill:#ACABB1;" d="M331.969,189.841c7.288,7.468,14.097,17.241,20.023,29.946c0,0,52.444-37.928,52.444-104.893
		C404.436,47.927,351.992,10,351.992,10c-5.93,12.71-12.734,22.487-20.017,29.955"/>
</g>
<rect x="232.999" y="54.01" style="fill:#2C7B7E;" width="46" height="126.15"/>
<g>
	<path style="fill:#C6C5CA;" d="M232.999,62.447c-2.554,0-5.232,0.001-8.071,0.002c-17.393-0.004-27.513-4.684-44.901-22.501
		c-12.459,17.76-24.352,43.058-24.35,74.945c-0.003,31.915,11.912,57.23,24.383,74.993c17.501-17.858,27.768-22.549,44.867-22.549
		h8.072V62.447z"/>
	<path style="fill:#C6C5CA;" d="M331.975,39.955c-17.367,17.809-27.455,22.49-44.905,22.494c-2.839-0.001-5.517-0.001-8.071-0.002
		v104.89h8.071c17.39,0,27.509,4.684,44.899,22.503c12.46-17.76,24.354-43.059,24.352-74.948
		C356.323,83.01,344.433,57.715,331.975,39.955z"/>
</g>
<path d="M357.852,1.897c-2.417-1.748-5.489-2.325-8.374-1.576c-2.887,0.75-5.288,2.748-6.549,5.451
	c-5.12,10.975-11.214,20.126-18.113,27.201c-0.006,0.006-0.011,0.012-0.017,0.018c-15.395,15.784-23.186,19.168-35.925,19.439
	c-0.758-4.772-4.891-8.419-9.875-8.419h-13V20c0-5.523-4.478-10-10-10s-10,4.477-10,10v24.011h-13c-4.985,0-9.117,3.648-9.875,8.419
	c-12.726-0.272-20.517-3.662-35.939-19.466c-0.01-0.01-0.019-0.019-0.029-0.029c-6.895-7.073-12.98-16.212-18.087-27.162
	c-1.26-2.703-3.661-4.702-6.548-5.452c-2.889-0.749-5.958-0.172-8.375,1.576c-2.311,1.671-56.589,41.747-56.584,112.996
	c-0.005,71.251,54.273,111.326,56.584,112.997c1.723,1.246,3.777,1.897,5.86,1.897c0.84,0,1.685-0.106,2.515-0.321
	c2.887-0.75,5.288-2.75,6.549-5.453c5.086-10.908,11.182-20.029,18.119-27.112c0.005-0.005,0.01-0.01,0.015-0.015
	c15.484-15.801,23.259-19.234,35.796-19.527v2.807c0,5.523,4.478,10,10,10h13v64.69h-30.001c-5.522,0-10,4.477-10,10V462
	c0,27.57,22.431,50,50.001,50s50.001-22.43,50.001-50V264.856c0-5.523-4.478-10-10-10h-30.002v-64.69h13c5.522,0,10-4.477,10-10
	v-2.807c12.646,0.289,20.435,3.709,35.813,19.467c0.01,0.011,0.021,0.021,0.031,0.031c6.895,7.073,12.98,16.21,18.087,27.158
	c1.261,2.703,3.662,4.702,6.549,5.451c0.829,0.216,1.674,0.321,2.514,0.321c2.083,0,4.138-0.651,5.86-1.897
	c2.311-1.671,56.584-41.741,56.584-112.996C414.436,43.638,360.163,3.567,357.852,1.897z M225.998,274.856h20.001v28.809h-20.001
	V274.856z M286,461.999c0,16.542-13.458,30-30.001,30s-30.001-13.458-30.001-30V323.664h20.001v60.707c0,5.523,4.478,10,10,10
	s10-4.477,10-10v-60.707H286V461.999z M286,274.856v28.809h-20.001v-28.809H286z M157.04,203.921
	c-13.949-13.616-39.481-44.609-39.479-89.029c-0.003-44.418,25.53-75.413,39.472-89.023c3.2,5.46,6.67,10.462,10.389,14.979
	c-14.437,22.936-21.748,47.808-21.745,74.044c-0.003,26.252,7.315,51.136,21.767,74.082
	C163.713,193.487,160.238,198.48,157.04,203.921z M181.929,174.282c-10.793-18.583-16.254-38.512-16.252-59.39
	c-0.002-20.853,5.444-40.756,16.214-59.321c13.745,12.099,25.033,16.536,41.108,16.859v84.926
	C207.019,157.679,195.75,162.132,181.929,174.282z M268.999,170.165h-26V64.011h26V170.165z M288.999,72.43
	c16.091-0.322,27.38-4.755,41.113-16.849c10.764,18.563,16.21,38.465,16.208,59.313c0.002,20.852-5.445,40.757-16.216,59.324
	c-13.749-12.105-25.036-16.542-41.105-16.862V72.43z M354.963,203.918c-3.199-5.459-6.67-10.461-10.389-14.977
	c14.438-22.938,21.75-47.811,21.747-74.047c0.003-26.234-7.307-51.105-21.742-74.041c3.725-4.527,7.202-9.544,10.408-15.021
	c13.945,13.538,39.45,44.404,39.45,89.061C394.436,159.316,368.904,190.309,354.963,203.918z"/>
<g>
</g>
<g>
</g>
<g>
</g>
<g>
</g>
<g>
</g>
<g>
</g>
<g>
</g>
<g>
</g>
<g>
</g>
<g>
</g>
<g>
</g>
<g>
</g>
<g>
</g>
<g>
</g>
<g>
</g>
</svg>
