<?xml version="1.0" encoding="iso-8859-1"?>
<!-- Generator: Adobe Illustrator 19.0.0, SVG Export Plug-In . SVG Version: 6.00 Build 0)  -->
<svg version="1.1" id="Capa_1" xmlns="http://www.w3.org/2000/svg" xmlns:xlink="http://www.w3.org/1999/xlink" x="0px" y="0px"
	 viewBox="0 0 512 512" style="enable-background:new 0 0 512 512;" xml:space="preserve">
<rect x="223.44" y="266.42" style="fill:#A84926;" width="65.11" height="132.58"/>
<rect x="130.36" y="10" style="fill:#C6C5CA;" width="251.28" height="203.43"/>
<g>
	<polygon style="fill:#898890;" points="129.86,10 94.796,35.063 94.796,188.362 129.86,213.425 130.361,213.425 130.361,10 	"/>
	<polygon style="fill:#898890;" points="382.14,10 381.639,10 381.639,213.425 382.14,213.425 417.204,188.362 417.204,35.063 	"/>
</g>
<rect x="204.5" y="213.43" style="fill:#2C7B7E;" width="103" height="52.996"/>
<rect x="204.5" y="399" style="fill:#FFC477;" width="103" height="103"/>
<polygon style="fill:#F6DAB9;" points="371.96,10 168.53,213.43 130.36,213.43 130.36,128.56 248.92,10 "/>
<path d="M277.43,53.78c-0.66,0-1.31-0.07-1.96-0.2c-0.64-0.12-1.27-0.32-1.87-0.57s-1.18-0.55-1.729-0.91
	c-0.54-0.37-1.061-0.79-1.521-1.25s-0.87-0.97-1.24-1.52c-0.359-0.54-0.67-1.12-0.92-1.73c-0.25-0.6-0.439-1.229-0.569-1.87
	c-0.13-0.64-0.19-1.3-0.19-1.949c0-0.65,0.061-1.311,0.19-1.95c0.13-0.641,0.319-1.271,0.569-1.88
	c0.25-0.601,0.561-1.181,0.92-1.721c0.37-0.55,0.78-1.06,1.24-1.52s0.98-0.88,1.521-1.24c0.55-0.36,1.13-0.67,1.729-0.92
	c0.601-0.25,1.23-0.45,1.87-0.58c1.29-0.26,2.62-0.26,3.91,0c0.64,0.13,1.27,0.33,1.87,0.58s1.18,0.56,1.729,0.92
	c0.54,0.36,1.061,0.78,1.521,1.24s0.88,0.97,1.24,1.52c0.359,0.54,0.67,1.12,0.92,1.721c0.25,0.609,0.439,1.239,0.569,1.88
	c0.13,0.64,0.2,1.3,0.2,1.95c0,0.649-0.07,1.31-0.2,1.949c-0.129,0.64-0.319,1.27-0.569,1.87c-0.25,0.61-0.561,1.19-0.92,1.73
	c-0.36,0.55-0.78,1.06-1.24,1.52s-0.98,0.88-1.521,1.25c-0.55,0.36-1.13,0.66-1.729,0.91c-0.601,0.25-1.23,0.45-1.87,0.57
	C278.729,53.71,278.079,53.78,277.43,53.78z"/>
<path d="M423.02,26.928L387.956,1.864C386.259,0.652,384.226,0,382.141,0H129.86c-2.085,0-4.119,0.652-5.815,1.864L88.981,26.928
	c-2.626,1.878-4.185,4.907-4.185,8.136v153.299c0,3.229,1.559,6.258,4.185,8.136l35.064,25.063c1.696,1.212,3.729,1.864,5.815,1.864
	h0.226c0.091,0.002,0.182,0.004,0.274,0.004h64.143v42.991c0,5.522,4.477,10,10,10h8.941v112.578h-8.941c-5.523,0-10,4.478-10,10
	V502c0,5.522,4.477,10,10,10h102.995c5.522,0,10-4.478,10-10V398.999c0-5.522-4.478-10-10-10h-8.94V276.421h8.94
	c5.522,0,10-4.478,10-10V223.43h64.143c0.092,0,0.183-0.001,0.274-0.004h0.227c2.085,0,4.118-0.652,5.815-1.864l35.063-25.063
	c2.626-1.878,4.185-4.907,4.185-8.136v-153.3C427.204,31.835,425.646,28.806,423.02,26.928z M192.673,203.43L371.64,24.463V203.43
	H192.673z M140.361,20h84.417l-84.417,84.417V20z M104.796,40.208l15.564-11.125v165.26l-15.564-11.125V40.208z M140.361,203.43
	v-8.441L256.213,79.136c3.905-3.905,3.905-10.237,0-14.143c-3.904-3.904-10.237-3.904-14.142,0l-101.71,101.71v-34.001L253.062,20
	h94.755L164.388,203.43H140.361z M297.497,492h-82.995v-83.001h82.995V492z M278.557,388.999h-45.113V276.421h45.113V388.999z
	 M297.497,256.421h-82.995V223.43h82.995V256.421z M407.204,183.218l-15.564,11.126V29.082l15.564,11.126V183.218z"/>
<g>
</g>
<g>
</g>
<g>
</g>
<g>
</g>
<g>
</g>
<g>
</g>
<g>
</g>
<g>
</g>
<g>
</g>
<g>
</g>
<g>
</g>
<g>
</g>
<g>
</g>
<g>
</g>
<g>
</g>
</svg>
