<?xml version="1.0" encoding="iso-8859-1"?>
<!-- Generator: Adobe Illustrator 19.0.0, SVG Export Plug-In . SVG Version: 6.00 Build 0)  -->
<svg version="1.1" id="Capa_1" xmlns="http://www.w3.org/2000/svg" xmlns:xlink="http://www.w3.org/1999/xlink" x="0px" y="0px"
	 viewBox="0 0 512.001 512.001" style="enable-background:new 0 0 512.001 512.001;" xml:space="preserve">
<path d="M152.439,35.3c-4.235,0-8.167-2.712-9.524-6.962c-0.323-1.013-0.477-2.038-0.476-3.047c0.001-4.233,2.712-8.164,6.961-9.521
	l0.507-0.162c5.261-1.678,10.887,1.225,12.567,6.485c0.323,1.013,0.477,2.038,0.476,3.047c-0.001,4.233-2.712,8.164-6.961,9.521
	l-0.507,0.162C154.472,35.146,153.446,35.3,152.439,35.3z"/>
<g>
	<polyline style="fill:#81B4A7;" points="338.169,406.442 380.949,431.731 380.949,309.046 338.169,334.335 	"/>
	<polyline style="fill:#81B4A7;" points="173.833,329.721 131.053,304.432 131.053,435.223 131.758,435.928 173.833,411.056 	"/>
</g>
<g>
	<polyline style="fill:#B0DBD0;" points="338.169,334.335 380.949,309.046 380.949,304.06 365.805,288.93 326.753,249.919 
		314.104,237.283 197.898,237.283 185.249,249.919 146.197,288.93 131.053,304.06 131.053,304.432 173.833,329.721 	"/>
	<polyline style="fill:#B0DBD0;" points="173.833,411.056 131.758,435.928 197.898,502 314.104,502 380.949,435.223 
		380.949,431.731 338.169,406.442 	"/>
</g>
<polygon style="fill:#2C7B7E;" points="338.169,321.767 338.169,417.516 296.379,459.263 215.623,459.263 185.762,429.432 
	173.833,417.516 173.833,321.767 215.623,280.02 296.379,280.02 326.076,309.686 "/>
<path d="M406.862,34.523C366.401,12.261,312.825,0,256.001,0c-21.468,0-42.662,1.761-62.993,5.233
	c-5.444,0.93-9.104,6.097-8.174,11.541c0.93,5.443,6.092,9.102,11.541,8.174C215.598,21.665,235.658,20,256.001,20
	c53.51,0,103.663,11.381,141.22,32.046c35.669,19.627,55.313,45.053,55.313,71.596s-19.644,51.969-55.313,71.596
	c-37.557,20.665-87.71,32.046-141.22,32.046s-103.663-11.381-141.22-32.046c-35.669-19.627-55.313-45.053-55.313-71.596
	c0-22.724,14.976-45.313,42.168-63.604c4.694-3.158,9.78-6.207,15.117-9.063c4.87-2.605,6.705-8.666,4.099-13.535
	c-2.605-4.87-8.666-6.706-13.535-4.1c-5.928,3.172-11.595,6.57-16.845,10.102c-32.889,22.125-51.003,50.608-51.003,80.2
	c0,34.167,23.322,65.816,65.671,89.118c22,12.105,47.879,21.253,76.048,27.081l-57.203,57.145c-1.877,1.875-2.933,4.42-2.933,7.074
	v131.164c0,2.654,1.056,5.2,2.934,7.076l0.706,0.704c0.006,0.006,0.013,0.012,0.019,0.019l66.119,66.052
	c1.875,1.874,4.417,2.926,7.067,2.926h116.207c2.65,0,5.192-1.052,7.067-2.926l66.845-66.776c1.877-1.875,2.933-4.42,2.933-7.074
	V304.06c0-2.654-1.055-5.199-2.933-7.074l-57.203-57.145c28.169-5.828,54.048-14.975,76.048-27.081
	c42.349-23.302,65.671-54.951,65.671-89.118S449.211,57.825,406.862,34.523z M348.168,340.04l22.781-13.466v87.629l-22.781-13.467
	V340.04z M328.168,413.37l-35.929,35.893h-72.478l-35.929-35.893v-87.458l35.929-35.893h72.478l35.929,35.893V413.37z
	 M163.834,405.35l-22.781,13.466V321.96l22.781,13.467V405.35z M309.965,492H202.037l-54.084-54.029l20.235-11.961l40.368,40.328
	c1.875,1.873,4.417,2.925,7.067,2.925h80.756c2.65,0,5.192-1.052,7.067-2.926l41.79-41.747c0.488-0.488,0.92-1.021,1.293-1.589
	l20.422,12.073L309.965,492z M309.965,247.283l57.925,57.865L347.164,317.4c-0.483-0.995-1.131-1.913-1.928-2.709l-41.79-41.746
	c-1.875-1.874-4.417-2.926-7.067-2.926h-80.756c-2.65,0-5.192,1.052-7.067,2.926l-41.308,41.266l-20.234-11.961l55.023-54.967
	H309.965z"/>
<polygon style="fill:#F6DAB9;" points="256.001,420.031 211.542,369.641 256.001,319.252 300.46,369.641 "/>
<path d="M256.001,430.031c-2.869,0-5.6-1.232-7.499-3.384l-44.459-50.39c-3.335-3.78-3.335-9.452,0-13.232l44.459-50.39
	c1.898-2.151,4.629-3.384,7.499-3.384c2.87,0,5.6,1.232,7.499,3.384l44.459,50.39c3.335,3.78,3.335,9.452,0,13.232l-44.459,50.39
	C261.601,428.799,258.87,430.031,256.001,430.031z M224.878,369.642l31.123,35.274l31.123-35.274l-31.123-35.275L224.878,369.642z"
	/>
<g>
</g>
<g>
</g>
<g>
</g>
<g>
</g>
<g>
</g>
<g>
</g>
<g>
</g>
<g>
</g>
<g>
</g>
<g>
</g>
<g>
</g>
<g>
</g>
<g>
</g>
<g>
</g>
<g>
</g>
</svg>
