<?xml version="1.0" encoding="iso-8859-1"?>
<!-- Generator: Adobe Illustrator 19.0.0, SVG Export Plug-In . SVG Version: 6.00 Build 0)  -->
<svg version="1.1" id="Capa_1" xmlns="http://www.w3.org/2000/svg" xmlns:xlink="http://www.w3.org/1999/xlink" x="0px" y="0px"
	 viewBox="0 0 512 512" style="enable-background:new 0 0 512 512;" xml:space="preserve">
<g>
	<g>
		<polygon style="fill:#FF9B4B;" points="256,70.957 273.976,76.996 299.664,85.625 277.83,47.813 256.002,10 234.172,47.813 
			212.339,85.627 238.028,76.996 		"/>
		<path style="fill:#FF9B4B;" d="M197.028,365.207c-0.023,0.004-0.043,0.004-0.065-0.004
			C196.985,365.205,197.007,365.205,197.028,365.207L197.028,365.207z M314.976,365.207c-7.357-0.135-51.842-23.135-58.974-23.135
			c-7.133,0-51.617,23-58.975,23.137c35.551,6.322,27.511,66.846,27.511,116.791c7.153,3.334,24.31,16.668,31.464,20
			c7.152-3.332,24.31-16.666,31.462-20C287.465,432.055,279.426,371.531,314.976,365.207z"/>
	</g>
	<g>
		<path style="fill:#959596;" d="M371.135,175.279c-0.848-0.021-1.676-0.002-2.633,0.061l1.596-0.17L371.135,175.279z"/>
		<path style="fill:#959596;" d="M196.963,365.211c0.022,0,0.042,0,0.063,0.01C197.005,365.217,196.985,365.213,196.963,365.211z"/>
		<path style="fill:#959596;" d="M125.364,176.938c9.422-1.02,12.59-1.582,15.504-1.658L125.364,176.938z"/>
		<path style="fill:#959596;" d="M140.867,175.279l1.039-0.109l1.592,0.17C142.543,175.277,141.715,175.258,140.867,175.279z"/>
		<path style="fill:#959596;" d="M158.038,176.893c-8.114-0.867-11.837-1.379-14.54-1.553L158.038,176.893z"/>
		<path style="fill:#959596;" d="M386.793,176.953c-0.092-0.01-0.182-0.018-0.272-0.027c-9.332-1.012-12.484-1.572-15.387-1.646
			L386.793,176.953z"/>
		<path style="fill:#959596;" d="M368.502,175.34l-14.537,1.553C362.074,176.025,365.799,175.514,368.502,175.34z"/>
	</g>
	<g>
		<path style="fill:#FF9B4B;" d="M354,176.891c8.088-0.865,11.803-1.377,14.502-1.551l1.596-0.17l1.037,0.109
			c2.902,0.074,6.055,0.635,15.387,1.646c0.09,0.01,0.18,0.018,0.272,0.027c0.207,0.023,0.418,0.047,0.635,0.07l20.195,2.158
			l-18.764-32.502l-18.762-32.5l-18.766,32.5l-18.764,32.502l21.396-2.289H354z"/>
		<path style="fill:#FF9B4B;" d="M125.566,176.891c8.087-0.865,11.804-1.377,14.504-1.551l1.595-0.17l1.038,0.109
			c2.903,0.074,6.055,0.635,15.387,1.646c0.09,0.01,0.179,0.018,0.271,0.027c0.207,0.023,0.419,0.047,0.635,0.07l20.199,2.158
			l-18.767-32.502l-18.763-32.5l-18.764,32.5l-18.765,32.502l21.397-2.289H125.566z"/>
	</g>
	<path style="fill:#FFBA50;" d="M196.963,365.211c0.022,0,0.042,0,0.063,0.01C197.005,365.217,196.985,365.213,196.963,365.211
		L196.963,365.211z M386.521,176.926c-9.332-1.012-12.484-1.572-15.387-1.646l15.078,1.613L386.521,176.926L386.521,176.926z
		 M368.502,175.34l-14.537,1.553c0.022-0.002,0.039-0.004,0.061-0.006C362.094,176.023,365.807,175.514,368.502,175.34
		L368.502,175.34z M140.867,175.279c0.848-0.021,1.676-0.002,2.631,0.061l9.871,1.055l0.032,0.004
		c1.352,0.156,2.887,0.332,4.637,0.52c-0.002,35.176-4.582,135.611,30.698,135.611c29.422,0,49.291-41.607,49.291-94.531V76.996
		L256,70.957l17.976,6.039v141.002c0,52.924,19.869,94.531,49.289,94.531c35.289,0,30.699-100.486,30.699-135.637l0.035-0.002
		c8.088-0.865,11.803-1.377,14.502-1.551c0.957-0.063,1.785-0.082,2.633-0.061c2.902,0.074,6.055,0.635,15.387,1.646
		c0.09,0.01,0.18,0.018,0.272,0.027c0.207,0.023,0.418,0.047,0.635,0.07c0,66.26,20.713,182.635-72.387,188.18
		c-0.023,0.002-0.045,0.002-0.064,0.004c-7.346-0.131-51.842-23.135-58.974-23.135c-7.133,0-51.62,23-58.975,23.137
		c-0.021-0.004-0.043-0.004-0.065-0.006c-93.1-5.545-72.387-121.92-72.387-188.18c0.267-0.029,0.531-0.059,0.787-0.086
		L140.867,175.279z"/>
</g>
<g>
	<path style="fill:#000001;" d="M416.283,174.182l-37.525-65.002c-1.787-3.094-5.088-5-8.66-5s-6.875,1.906-8.66,5l-37.529,65.002
		c-1.881,3.26-1.773,7.299,0.279,10.453c1.857,2.855,5.021,4.547,8.379,4.547c0.354,0,0.709-0.02,1.065-0.057l10.416-1.113
		c0,0.059,0,0.111,0,0.17c0.293,28.555,0.977,95.426-15.166,111.734c-2.293,2.316-4.205,2.613-5.615,2.613
		c-22.031,0-39.289-37.131-39.289-84.531V90.904l12.504,4.199c3.941,1.324,8.291,0.07,10.924-3.148c2.633-3.217,3-7.73,0.92-11.33
		L264.662,5c-1.787-3.094-5.088-5-8.66-5c-3.573,0-6.875,1.906-8.66,5l-43.663,75.625c-2.079,3.6-1.713,8.113,0.92,11.33
		c1.934,2.365,4.796,3.67,7.741,3.67c1.063,0,2.139-0.17,3.184-0.521l12.504-4.199v127.094c0,47.4-17.259,84.531-39.291,84.531
		c-1.41,0-3.322-0.297-5.613-2.611c-16.143-16.309-15.459-83.18-15.167-111.736c0.001-0.059,0.001-0.111,0.002-0.17l10.411,1.113
		c3.746,0.402,7.393-1.336,9.445-4.49c2.053-3.154,2.16-7.193,0.278-10.453l-37.528-65.002c-1.787-3.094-5.088-5-8.66-5
		s-6.874,1.906-8.66,5l-37.528,65.002c-1.882,3.258-1.774,7.299,0.278,10.453c1.857,2.855,5.021,4.547,8.38,4.547
		c0.353,0,0.709-0.02,1.065-0.057l8.974-0.959c-0.168,6.385-0.445,13.139-0.732,20.133c-1.398,34.059-2.983,72.662,6.196,104.486
		c11.18,38.756,36.617,59.717,75.601,62.332c21.353,4.059,20.39,44.092,19.451,82.822c-0.192,7.951-0.392,16.174-0.392,24.06
		c0,3.887,2.252,7.42,5.774,9.063c2.826,1.318,8.919,5.496,14.294,9.18c6.605,4.529,12.845,8.807,17.173,10.822
		c1.338,0.625,2.78,0.935,4.223,0.935c1.441,0,2.882-0.31,4.222-0.935c4.328-2.016,10.566-6.293,17.172-10.822
		c5.375-3.684,11.469-7.861,14.295-9.18c3.522-1.643,5.773-5.176,5.773-9.063c0-7.889-0.199-16.111-0.391-24.064
		c-0.939-38.729-1.902-78.76,19.451-82.818c38.982-2.615,64.422-23.576,75.602-62.332c9.18-31.826,7.594-70.428,6.195-104.486
		c-0.287-6.994-0.564-13.748-0.732-20.133l8.971,0.959c3.744,0.402,7.393-1.336,9.445-4.49S418.166,177.441,416.283,174.182z
		 M370.095,134.182l19.033,32.965l-13.861-1.48l-4.105-0.439c-0.354-0.039-0.709-0.059-1.065-0.057
		c-0.355-0.002-0.709,0.018-1.065,0.057l-1.029,0.109l-15.1,1.613c-0.012,0-0.021,0.004-0.033,0.004l-1.809,0.193L370.095,134.182z
		 M256.002,30l21.779,37.725l-18.596-6.246c-1.033-0.348-2.107-0.521-3.183-0.521c-0.435,0-0.868,0.037-1.3,0.094
		c-0.638,0.082-1.271,0.221-1.888,0.428l-13.611,4.572l-4.981,1.674L256.002,30z M141.905,134.18l19.033,32.967l-1.8-0.191
		c-0.013-0.002-0.024-0.006-0.038-0.006l-16.131-1.723c-0.708-0.076-1.421-0.076-2.129,0l-0.165,0.018l-17.804,1.902L141.905,134.18
		z M279.566,395.373c-3.574,18.197-3.021,40.998-2.486,63.047c0.143,5.873,0.287,11.898,0.352,17.768
		c-3.408,2.119-7.309,4.793-11.344,7.561c-3.412,2.34-7.113,4.877-10.085,6.756c-2.973-1.879-6.674-4.416-10.086-6.756
		c-4.036-2.768-7.936-5.441-11.344-7.561c0.063-5.869,0.209-11.891,0.352-17.764c0.534-22.051,1.087-44.852-2.486-63.051
		c-2.346-11.943-6.445-21.295-12.258-28.01c3.057-1.334,6.492-2.857,10.375-4.59c4.609-2.055,10.409-4.641,15.447-6.768v26.068
		c0,5.523,4.477,10,10,10c5.523,0,9.999-4.477,9.999-10v-26.068c5.037,2.127,10.834,4.711,15.443,6.768
		c3.883,1.73,7.32,3.256,10.379,4.59C286.01,374.078,281.91,383.43,279.566,395.373z M315.326,355.164
		c-3.949-0.943-16.992-6.76-25.734-10.658c-18.34-8.178-26.744-11.746-32.039-12.342c-0.547-0.063-1.062-0.092-1.55-0.092
		c-5.215,0-13.355,3.41-33.593,12.436c-8.741,3.896-21.782,9.713-25.731,10.656c-63.727-4.357-66.301-65.986-63.014-146.045
		c0.33-8.047,0.648-15.781,0.807-23.098l7.268-0.777c0.025-0.002,0.051-0.004,0.076-0.008l0.092-0.01l6.072,0.648
		c-0.007,0.689-0.014,1.389-0.021,2.104c-0.514,50.205,0.64,105.488,20.951,126.008c5.531,5.588,12.389,8.543,19.828,8.543
		c17.982,0,33.819-11.682,44.594-32.891c9.477-18.656,14.697-44.098,14.697-71.641V84.186l7.975-2.68l7.974,2.68v133.813
		c0,27.541,5.219,52.984,14.697,71.641c10.773,21.209,26.609,32.891,44.592,32.891c7.439,0,14.297-2.955,19.828-8.543
		c20.313-20.521,21.467-75.803,20.953-126.01c-0.008-0.713-0.016-1.414-0.021-2.102l6.07-0.648l7.438,0.795
		c0.158,7.316,0.477,15.051,0.807,23.098C381.627,289.176,379.053,350.807,315.326,355.164z"/>
	<path style="fill:#000001;" d="M256.006,400.803c-5.523,0-10,4.479-10,10v0.236c0,5.523,4.477,10,10,10s10-4.477,10-10v-0.236
		C266.006,405.281,261.529,400.803,256.006,400.803z"/>
</g>
<g>
</g>
<g>
</g>
<g>
</g>
<g>
</g>
<g>
</g>
<g>
</g>
<g>
</g>
<g>
</g>
<g>
</g>
<g>
</g>
<g>
</g>
<g>
</g>
<g>
</g>
<g>
</g>
<g>
</g>
</svg>
