<svg xmlns="http://www.w3.org/2000/svg" viewBox="0 0 391 315.58"><defs><style>.cls-1{font-size:58.03px;}.cls-1,.cls-2,.cls-3,.cls-4,.cls-5,.cls-6,.cls-7,.cls-8{fill:#fff;font-family:LucidaConsole, Lucida Console;}.cls-2{font-size:57.8px;}.cls-3{font-size:55.78px;}.cls-4{font-size:56.2px;}.cls-5{font-size:56.62px;}.cls-6{font-size:50.52px;}.cls-7{font-size:56.17px;}.cls-8{font-size:47.18px;}</style></defs><title>d%</title><g id="Livello_1" data-name="Livello 1"><path d="M379.71,394.7l-54.9,29.72L324.92,531,430.39,403.47,387,390.8Zm-6.2,63.13-3,8.54-24.26-5.2,2.5-7.46a74.85,74.85,0,0,0,6.74-6.6,93.2,93.2,0,0,0,8.27-10.18,100.33,100.33,0,0,0,6.29-10.44,70.39,70.39,0,0,0,4.75-10.44l7,1.46a88.78,88.78,0,0,1-15.16,25.82q-6.65,7.92-10.31,10.83ZM253,390.68,210.7,403.33,315.32,531.14V424.42L260.44,394.7Zm9.7,29.6a13,13,0,0,1,12.12,4,30.72,30.72,0,0,1,5.6,8.25L273.88,434a16.55,16.55,0,0,0-2.69-4.29q-2.6-2.83-5.62-2.24l-.24.06a3.4,3.4,0,0,0-2.58,2.58c-.43,1.38-.12,3.23.89,5.45q2,4.41,5.4,5.24a10.13,10.13,0,0,0,4.28-.11l.93-.2,2.89,6.29q-3.19.82-4.11,1.9-1.61,1.83.21,5.77a9.65,9.65,0,0,0,3,3.9,4.63,4.63,0,0,0,3.69.89l.21,0a2.9,2.9,0,0,0,2.53-2.77,11.11,11.11,0,0,0-1.37-5.53l6.18-1.47a31.5,31.5,0,0,1,2.05,6.52,13.35,13.35,0,0,1-.32,5.45,6.83,6.83,0,0,1-2,3.15,9,9,0,0,1-4,1.88l-.6.12a12.25,12.25,0,0,1-8.73-1.57,17.55,17.55,0,0,1-7.05-8.19,12.29,12.29,0,0,1-1.3-7.08,5.21,5.21,0,0,1,1.25-2.88h0c-.61.12-1.79-.36-3.52-1.45a17.78,17.78,0,0,1-6.44-7.9,17.29,17.29,0,0,1-1.64-10.69q1-5,6.83-6.39ZM206,393.57,260.3,326a4.21,4.21,0,0,1,.71,0h.08c1.05.14,1.52.86,1.42,2.16a12.25,12.25,0,0,1-1.64,4.71,22.06,22.06,0,0,1-4.86,6.05q-1.95,1.69-7.51,5.53a44.31,44.31,0,0,0-9.76,8.58,53.88,53.88,0,0,0-5.75,8.42l16.43,2.18,4.09-7.53L243,354.69a19.11,19.11,0,0,1,2.37-2.23q1.18-.93,4.22-3l3.2-2.18a46.45,46.45,0,0,0,6.45-5.1,34.61,34.61,0,0,0,6.24-8.37c2.28-4.21,3.36-7.68,3.24-10.44-.09-2.29-1.05-3.74-2.84-4.36l39.84-49.5-51,104.37-2.85,5.85Zm183.21-42.13q-1.89-3.13-1.86-4.89a1.8,1.8,0,0,1,1.76-2h.28a5.36,5.36,0,0,1,3.41,1.29,16.48,16.48,0,0,1,3.87,4.63,10.55,10.55,0,0,1,1.83,4.82,1.86,1.86,0,0,1-1.73,2.05h-.29a5.32,5.32,0,0,1-3.43-1.37,15.81,15.81,0,0,1-3.84-4.53Zm-54.5-82.21,41.9,52.1H376a3.21,3.21,0,0,0-.73.06q-3.9.51-4.16,4c-.16,2.31.67,5,2.52,8a30.07,30.07,0,0,0,3.18,4.28,19.13,19.13,0,0,0,5.06,4,6,6,0,0,0-.35,4.64,23.71,23.71,0,0,0,2.8,6.45,30.05,30.05,0,0,0,7.6,8.6,12.26,12.26,0,0,0,8,2.87,4.45,4.45,0,0,0,.81-.08q4.38-.57,4.61-4.57a11.56,11.56,0,0,0-.23-2.82l29.29,36.43-45.71-13.33-3-6.22Zm49,60.77,1.24,1.53.68,1.05a7.91,7.91,0,0,1,1.37,3.83,1.61,1.61,0,0,1-1.58,1.77h-.25a4.78,4.78,0,0,1-3.06-1.14,12.64,12.64,0,0,1-3.12-3.6,8.13,8.13,0,0,1-1.45-4,1.64,1.64,0,0,1,1.61-1.72h.26a4.65,4.65,0,0,1,3,1.1,10.17,10.17,0,0,1,1.28,1.18Zm-63.54-66.21L261,383l59.18,32,59.2-32Zm-.59,120.89q-8.75,0-12.27-7.14t-3.52-20.33q0-13.2,3.52-20.37t12.27-7.18q8.76,0,12.27,7.17t3.52,20.37q0,13.2-3.52,20.34t-12.27,7.14Zm5.26-41.47q1.25,4.64,1.25,14.27a60.25,60.25,0,0,1-1.25,14.06q-1.25,4.88-5.26,4.84t-5.31-4.84Q313,366.71,313,357.48q0-9.64,1.29-14.27t5.31-4.63q4,0,5.25,4.62Z" transform="translate(-206 -263.79)"/><path d="M315,311.59,294.84,350.7l5.22,32.16s10.46,15.65,12.7,14.78,21.65,0,21.65,0,8.95-16.51,11.94-17.38-.75-21.73,0-25.21-11.94-28.68-11.94-28.68l-14.94-14.78Z" transform="translate(-206 -263.79)"/><polygon points="167.23 147.76 141.84 190.35 129.15 205.13 154.53 205.13 167.23 202.52 181.41 166.01 181.41 147.76 171.71 147.76 167.23 147.76"/><path d="M261.24,414.15c6,6.09,33.6,15.65,33.6,15.65l9,24.34-9,14.77-12.69,8.69L263,469,252.7,454.63l2.57-24.83Z" transform="translate(-206 -263.79)"/><polygon points="25.5 98.04 63.22 51.14 64.95 59.97 61.96 74.75 52.26 93 43.3 104.3 25.5 98.04"/><path d="M375.42,319.84l35.82,44.48-23.83,1.16-23.89-40.85S375.37,320.26,375.42,319.84Z" transform="translate(-206 -263.79)"/><polygon points="47.03 152.1 45.54 169.49 55.24 172.97 59.53 153.47 49.27 152.1 47.03 152.1"/><polyline points="109.32 253.04 109.32 267.21 0.75 140.81 5.77 139.22"/><path d="M547.18,510.35,491.74,501l-65.68,78.35,150-33.8-21.53-34ZM504,553.2l-7.28,4.59L483.58,540.2l6.29-4.06a71.65,71.65,0,0,0,8.63-1,87.88,87.88,0,0,0,11.87-2.79,101.07,101.07,0,0,0,10.69-4.09,71.15,71.15,0,0,0,9.65-5l3.85,5.06a87,87,0,0,1-26.17,10.36c-6.26,1.37-10.8,2.08-13.65,2.11ZM464,435.47l-36.38-14.72L419.49,574l65.84-78.39-18.75-53Zm-11.7,27.24a10.92,10.92,0,0,1,5.75,9.79,29.8,29.8,0,0,1-1.3,9.23l-5.38-2.56a16.47,16.47,0,0,0,.83-4.67q0-3.56-2.42-4.84l-.2-.1a3.17,3.17,0,0,0-3.33.44c-1.14.77-2.07,2.3-2.76,4.51-.9,2.93-.76,5.24.41,6.91a8.23,8.23,0,0,0,3,2.34l.76.39-1.93,6.26c-1.78-.8-3.1-1.12-3.95-.93-1.48.28-2.61,1.74-3.42,4.36a9.17,9.17,0,0,0-.35,4.58,3.82,3.82,0,0,0,1.95,2.75l.17.08a2.69,2.69,0,0,0,3.41-.59,11.48,11.48,0,0,0,2.49-4.84l5.09,2.42a32.82,32.82,0,0,1-2.64,6,14,14,0,0,1-3.58,3.82,6.76,6.76,0,0,1-3.28,1.19,7.71,7.71,0,0,1-3.87-.9l-.48-.24a10.07,10.07,0,0,1-4.93-6.11,16.5,16.5,0,0,1,.29-10A12.63,12.63,0,0,1,436.1,486a5.15,5.15,0,0,1,2.62-1.4l0,0c-.49-.26-1-1.28-1.48-3.06a16.77,16.77,0,0,1,.52-9.46,17.86,17.86,0,0,1,5.49-8.79q3.75-3.12,8.56-.82Zm-21.83-51.79,78.4-18.83a2.32,2.32,0,0,1,.48.4l.05.05c.63.69.5,1.48-.37,2.39a12.58,12.58,0,0,1-4,2.52,20.82,20.82,0,0,1-7,1.69c-1.58.09-4.41,0-8.48-.21a40.81,40.81,0,0,0-11.9.77,51.71,51.71,0,0,0-9.07,2.92l9.75,10.93,7.41-3.21-6.22-7a17.88,17.88,0,0,1,3-.29c.92,0,2.49.06,4.69.21l3.51.22a42.81,42.81,0,0,0,7.5-.09,33.66,33.66,0,0,0,9.39-2.61q6.19-2.7,8.63-5.83c1.35-1.74,1.6-3.34.77-4.81l57.46-13.75L475.6,424.17l-5.54,2.67ZM580.29,484a10.42,10.42,0,0,1,1.76-4.65,1.67,1.67,0,0,1,2.41-.46l.19.16a4.54,4.54,0,0,1,1.51,2.89,15.61,15.61,0,0,1-.24,5.59,10.67,10.67,0,0,1-1.74,4.58,1.74,1.74,0,0,1-2.43.53l-.2-.17a4.46,4.46,0,0,1-1.47-2.95,15.13,15.13,0,0,1,.19-5.51Zm13.89-91.33-3.82,62.05-.4-.33a2.47,2.47,0,0,0-.53-.37,3.8,3.8,0,0,0-5.27.57c-1.54,1.6-2.62,4-3.24,7.29a30.19,30.19,0,0,0-.49,5,17.12,17.12,0,0,0,1,5.82,6.18,6.18,0,0,0-3.1,3.2,23.26,23.26,0,0,0-2.08,6.33A28.1,28.1,0,0,0,576,492.8a10.28,10.28,0,0,0,3.65,6.66,4.07,4.07,0,0,0,.59.4,4.25,4.25,0,0,0,5.94-.75,11.4,11.4,0,0,0,1.59-2.2l-2.68,43.39-22.67-35.74,1.78-6.3Zm-4.35,72.48-.11,1.82c-.05.38-.13.77-.19,1.16a8,8,0,0,1-1.43,3.59,1.52,1.52,0,0,1-2.16.41l-.17-.15a4,4,0,0,1-1.37-2.58,11.76,11.76,0,0,1,.12-4.41A8.29,8.29,0,0,1,586,461.2a1.53,1.53,0,0,1,2.15-.35l.18.15a4,4,0,0,1,1.37,2.53,9.14,9.14,0,0,1,.13,1.59Zm-2.09-84.7-113.5,53.94,20.25,57.09,59.75,10.1Zm-75,88.46q-5.91-5-3.89-12.21T519,439.74q8.15-9.71,15-13t12.72,1.7q5.91,5,3.87,12.23t-10.19,17q-8.14,9.69-14.92,12.94t-12.7-1.72Zm29.14-27.47q-2,4.09-8,11.18a63.35,63.35,0,0,1-9.52,9.63q-3.85,2.86-6.54.56t-.61-6.56a60.22,60.22,0,0,1,7.81-11.07q5.94-7.08,9.67-9.74t6.45-.39q2.7,2.26.69,6.37Z" transform="translate(-206 -263.79)"/><path d="M554.72,412.57,517,429.86l-16.31,26.59s-2.59,17.42-.54,18.05,14.63,12.29,14.63,12.29,16.24-7,18.8-6,12.9-16.38,15.55-18.51,9.62-27.85,9.62-27.85l-1-19.33Z" transform="translate(-206 -263.79)"/><polygon points="326.4 255.26 282.98 272.13 265.28 275.78 282.44 290.19 292.62 295.48 324.73 276.71 335.99 263.31 329.43 257.8 326.4 255.26"/><path d="M455.12,457.39c.28,7.86,13.05,30.57,13.05,30.57l-9,23L444,516.69l-13.94-.82-7.6-17.22,1.87-16.38,17.06-16.77Z" transform="translate(-206 -263.79)"/><polygon points="261.31 138.29 315.73 125.25 311.45 132.72 300.32 141.88 282.5 149.78 269.47 152.99 261.31 138.29"/><path d="M590.47,452.92l-3.24,53-16.82-12.67,9.06-43.57S590.17,453.21,590.47,452.92Z" transform="translate(-206 -263.79)"/><polygon points="254.83 195.53 242.41 207.64 248.78 217.5 265.02 205.86 256.81 197.2 254.83 195.53"/><polyline points="222.32 299.72 213.58 310.13 218.19 155.65 222.56 157.34"/><path d="M441.53,455.45l-5.8,12.93,11.59,5.35s12.93-7.57,12-9.36-9.81-10.7-9.81-10.7Z" transform="translate(-206 -263.79)"/></g><g id="Livello_2" data-name="Livello 2"><text class="cls-1" transform="translate(83.59 112.5) scale(0.86 1)">00</text><text class="cls-2" transform="matrix(-0.85, 0.18, -0.15, -0.99, 187.3, 158.77)">50</text><text class="cls-3" transform="matrix(-0.75, -0.56, 0.48, -0.88, 95.09, 177.71)">70</text><text class="cls-4" transform="matrix(0.77, -0.5, 0.43, 0.9, 178.98, 107.92)">4</text><text class="cls-5" transform="matrix(0.8, 0.44, -0.38, 0.93, 25.14, 87.63)">0</text><text class="cls-6" transform="matrix(0.73, 0.69, -0.69, 0.73, 290.99, 172.73)">10</text><text class="cls-7" transform="matrix(-1.03, -0.11, 0.11, -0.99, 344.32, 258.11)">20</text><text class="cls-7" transform="matrix(-0.18, -1.02, 0.98, -0.18, 265.06, 249.56)">30</text><text class="cls-8" transform="matrix(1, 0.03, -0.03, 1, 361.28, 229.63)">4</text><text class="cls-8" transform="translate(259.24 137.19) rotate(58.44)">5</text></g></svg>